<svg data-name="レイヤー 1" xmlns="http://www.w3.org/2000/svg" viewBox="0 0 664 230"><defs><linearGradient id="a" x1="114.11" y1="168.06" x2="114.11" y2="45.14" gradientUnits="userSpaceOnUse"><stop offset="0" stop-color="#ea3375"/><stop offset=".02" stop-color="#ea3572"/><stop offset=".24" stop-color="#eb4656"/><stop offset=".43" stop-color="#ec5145"/><stop offset=".57" stop-color="#ec553f"/><stop offset="1" stop-color="#ec8317"/></linearGradient><linearGradient id="b" x1="98.34" y1="196.42" x2="138.17" y2="47.75" gradientUnits="userSpaceOnUse"><stop offset="0" stop-color="#ea3375"/><stop offset=".07" stop-color="#eb4061"/><stop offset=".16" stop-color="#eb4c4e"/><stop offset=".26" stop-color="#ec5343"/><stop offset=".36" stop-color="#ec553f"/><stop offset="1" stop-color="#ec8317"/></linearGradient><linearGradient id="c" x1="73.7" y1="141.64" x2="231.02" y2="141.64" gradientUnits="userSpaceOnUse"><stop offset="0" stop-color="#d11869"/><stop offset=".14" stop-color="#de2f5d"/><stop offset=".35" stop-color="#ec4a50"/><stop offset=".56" stop-color="#f75d47"/><stop offset=".77" stop-color="#fd6841"/><stop offset="1" stop-color="#ff6c3f"/></linearGradient></defs><path d="M106.48 46.85a58.55 58.55 0 00-29.78 50.3c0 11.62 3.82 22.15 11.44 28.87a30.56 30.56 0 0117.62-5.81c15.61 0 30 13.07 30 29.42a27.46 27.46 0 01-1.09 7.62 50.91 50.91 0 0016.89-38.13c-.04-36.86-40.72-38.31-45.08-72.27z" fill="url(#a)"/><path d="M134.63 157.25L88.14 183v-44.81z" fill="url(#b)"/><path fill="url(#c)" d="M134.63 157.25l-46.49-8.89v-22.34l46.49 31.23z"/><path d="M196.22 130v28.56h-15.84V82h31.55c16.09 0 26.82 8.61 26.82 24.32 0 12.22-6.74 20-17.46 22.58l20.2 29.68h-18l-19-28.56zm0-13.1h14.71c8 0 12.1-4.24 12.1-10.6s-4.11-10.73-12.1-10.73h-14.71zM257.58 134.26c1.25 9.11 7.86 12.85 16.09 12.85 6.11 0 10.48-1.37 16-4.87V155c-4.61 3.36-10.85 4.86-18.33 4.86-17 0-28.56-11-28.56-28.69 0-17.46 11-29.56 26.19-29.56 16.21 0 24.57 11.23 24.57 27.69v5zm.5-10.1h21.08c-.38-6-3.74-10.23-9.86-10.23-5.11 0-9.48 3.24-11.22 10.23zM336.28 91a9.63 9.63 0 00-5.49-1.5c-4.74 0-7.61 2.62-7.61 7.74v5.61h11.6v12.45h-11.6v43.28H308V115.3h-9.11v-12.47H308v-6.61c0-12.6 7.85-19.83 19.7-19.83a21 21 0 018.61 1.49zM367.09 101.58c5.61 0 11.1 1.25 15.09 4.37V120a19.19 19.19 0 00-13.22-5c-8.24 0-14.72 5.74-14.72 15.72s6.48 15.71 14.72 15.71a19.77 19.77 0 0013.22-5v14c-4 3.12-9.48 4.37-15.09 4.37-15.85 0-28.19-11.23-28.19-29.06s12.34-29.16 28.19-29.16zM415.48 159.83c-16.22 0-27.32-12-27.32-29.06s11.1-29.19 27.32-29.19 27.31 12 27.31 29.19-11.1 29.06-27.31 29.06zm0-45.15c-7.74 0-12 6.73-12 16.09s4.24 16 12 16 12-6.73 12-16-4.27-16.09-12-16.09zM511.52 101.58c11.47 0 18.33 8 18.33 20.58v36.42h-15.46V125.4c0-6-2.62-10-8-10a8.6 8.6 0 00-8.6 7.23v35.92h-15.58V125.4c0-6-2.5-10-7.86-10a8.73 8.73 0 00-8.73 7.23v35.92h-15.47v-55.72h15.47v4.61c2.74-3.49 7.85-5.86 14.09-5.86a18.46 18.46 0 0115 7.11c3.59-3.99 8.95-7.11 16.81-7.11zM550.93 134.26c1.24 9.11 7.85 12.85 16.09 12.85 6.11 0 10.47-1.37 16-4.87V155c-4.61 3.36-10.85 4.86-18.33 4.86-17 0-28.57-11-28.57-28.69 0-17.46 11-29.56 26.2-29.56 16.21 0 24.57 11.23 24.57 27.69v5zm.49-10.1h21.08c-.37-6-3.74-10.23-9.85-10.23-5.11 0-9.48 3.24-11.23 10.23z"/></svg>