<svg data-name="レイヤー 1" xmlns="http://www.w3.org/2000/svg" viewBox="0 0 266 371"><defs><linearGradient id="a" x1="131.45" y1="250.92" x2="131.45" y2="33.96" gradientUnits="userSpaceOnUse"><stop offset="0" stop-color="#ea3375"/><stop offset=".02" stop-color="#ea3572"/><stop offset=".24" stop-color="#eb4656"/><stop offset=".43" stop-color="#ec5145"/><stop offset=".57" stop-color="#ec553f"/><stop offset="1" stop-color="#ec8317"/></linearGradient><linearGradient id="b" x1="103.61" y1="300.98" x2="173.93" y2="38.57" gradientUnits="userSpaceOnUse"><stop offset="0" stop-color="#ea3375"/><stop offset=".07" stop-color="#eb4061"/><stop offset=".16" stop-color="#eb4c4e"/><stop offset=".26" stop-color="#ec5343"/><stop offset=".36" stop-color="#ec553f"/><stop offset="1" stop-color="#ec8317"/></linearGradient><linearGradient id="c" x1="60.14" y1="204.29" x2="337.8" y2="204.29" gradientUnits="userSpaceOnUse"><stop offset="0" stop-color="#d11869"/><stop offset=".14" stop-color="#de2f5d"/><stop offset=".35" stop-color="#ec4a50"/><stop offset=".56" stop-color="#f75d47"/><stop offset=".77" stop-color="#fd6841"/><stop offset="1" stop-color="#ff6c3f"/></linearGradient></defs><path d="M43.81 319.72v13.6h-7.54v-36.46h15c7.66 0 12.77 4.1 12.77 11.58 0 5.82-3.21 9.5-8.32 10.74l9.62 14.14h-8.53l-9-13.6zm0-6.23h7c3.8 0 5.76-2 5.76-5.05s-2-5.11-5.76-5.11h-7zM73 321.74c.6 4.33 3.74 6.11 7.66 6.11a12.86 12.86 0 007.6-2.31v6c-2.19 1.61-5.16 2.32-8.72 2.32-8.08 0-13.6-5.22-13.6-13.66s5.22-14.07 12.47-14.07c7.72 0 11.69 5.35 11.69 13.18v2.38zm.24-4.81h10c-.18-2.85-1.79-4.87-4.7-4.87-2.38 0-4.46 1.54-5.29 4.87zM110.47 301.13a4.59 4.59 0 00-2.61-.71c-2.26 0-3.62 1.25-3.62 3.68v2.67h5.52v5.94h-5.52v20.61H97v-20.61h-4.34v-5.94H97v-3.14c0-6 3.73-9.44 9.38-9.44a9.85 9.85 0 014.09.71zM125.13 306.18a11.63 11.63 0 017.19 2.08V315a9.16 9.16 0 00-6.29-2.38c-3.92 0-7 2.74-7 7.49s3.09 7.48 7 7.48a9.4 9.4 0 006.29-2.38v6.65a11.63 11.63 0 01-7.19 2.08c-7.53 0-13.41-5.34-13.41-13.83s5.88-13.93 13.41-13.93zM148.17 333.91c-7.72 0-13-5.7-13-13.83s5.29-13.9 13-13.9 13 5.7 13 13.9-5.28 13.83-13 13.83zm0-21.5c-3.68 0-5.7 3.21-5.7 7.67s2 7.6 5.7 7.6 5.7-3.21 5.7-7.6-2.02-7.67-5.7-7.67zM193.88 306.18c5.46 0 8.73 3.8 8.73 9.8v17.34h-7.37v-15.8c0-2.85-1.24-4.75-3.8-4.75a4.1 4.1 0 00-4.09 3.45v17.1h-7.43v-15.8c0-2.85-1.18-4.75-3.73-4.75a4.15 4.15 0 00-4.16 3.45v17.1h-7.36v-26.55H172V309a8.46 8.46 0 016.71-2.79 8.78 8.78 0 017.12 3.39 10.34 10.34 0 018.05-3.42zM212.63 321.74c.6 4.33 3.74 6.11 7.66 6.11a12.86 12.86 0 007.6-2.31v6c-2.19 1.61-5.16 2.32-8.73 2.32-8.07 0-13.59-5.22-13.59-13.66s5.22-14.07 12.47-14.07c7.71 0 11.69 5.35 11.69 13.18v2.38zm.24-4.81h10c-.17-2.85-1.78-4.87-4.69-4.87-2.4 0-4.48 1.54-5.31 4.87z"/><path d="M118 37c-35.26 19.85-52.57 56.39-52.57 88.76 0 20.51 6.73 39.1 20.19 51a53.89 53.89 0 0131.09-10.25c27.56 0 52.89 23.07 52.89 51.92a48.88 48.88 0 01-1.93 13.46c18.59-16.35 29.81-41 29.81-67.31 0-65.1-71.79-67.66-79.48-127.58z" fill="url(#a)"/><path d="M167.67 231.85l-82 45.51V198.2z" fill="url(#b)"/><path fill="url(#c)" d="M167.67 231.85l-82.05-15.7v-39.43l82.05 55.13z"/></svg>